<svg width="47" height="46" viewBox="0 0 47 46" fill="none" xmlns="http://www.w3.org/2000/svg">
<rect x="0.5" width="46" height="46" rx="23" fill="#3D3D3D" fill-opacity="0.36"/>
<rect x="1" y="0.5" width="45" height="45" rx="22.5" stroke="#4D4D4D" stroke-opacity="0.08"/>
<g clip-path="url(#clip0_1_1346)">
<path d="M41.5 23C41.5 13.0589 33.4411 4.99998 23.5 4.99998C13.5589 4.99998 5.5 13.0589 5.5 23C5.5 31.9843 12.0823 39.431 20.6875 40.7813V28.2031H16.1172V23H20.6875V19.0344C20.6875 14.5231 23.3748 12.0312 27.4864 12.0312C29.4557 12.0312 31.5156 12.3828 31.5156 12.3828V16.8125H29.2459C27.0098 16.8125 26.3125 18.2 26.3125 19.6235V23H31.3047L30.5066 28.2031H26.3125V40.7813C34.9177 39.431 41.5 31.9843 41.5 23Z" fill="#1877F2"/>
<path d="M30.5066 28.2031L31.3047 23H26.3125V19.6235C26.3125 18.2 27.0098 16.8125 29.2459 16.8125H31.5156V12.3828C31.5156 12.3828 29.4557 12.0312 27.4864 12.0312C23.3748 12.0312 20.6875 14.5231 20.6875 19.0344V23H16.1172V28.2031H20.6875V40.7813C21.6039 40.9251 22.5432 41 23.5 41C24.4568 41 25.3961 40.9251 26.3125 40.7813V28.2031H30.5066Z" fill="white"/>
</g>
<defs>
<clipPath id="clip0_1_1346">
<rect width="36" height="36" fill="white" transform="translate(5.5 5)"/>
</clipPath>
</defs>
</svg>
