<svg width="14" height="14" viewBox="0 0 14 14" fill="none" xmlns="http://www.w3.org/2000/svg">
<path d="M13.41 5.91751C13.6384 7.27536 13.4294 8.67067 12.8132 9.90199C12.1969 11.1333 11.2052 12.1369 9.98139 12.7679C8.75755 13.3989 7.36484 13.6246 6.00435 13.4125C4.64387 13.2003 3.38599 12.5613 2.41236 11.5877C1.43872 10.614 0.799703 9.35616 0.587564 7.99567C0.375425 6.63518 0.601145 5.24247 1.23213 4.01863C1.86312 2.79479 2.86672 1.80314 4.09804 1.18687C5.32935 0.570591 6.72467 0.361579 8.08252 0.590007C8.21231 0.61296 8.32779 0.686234 8.40383 0.793889C8.47988 0.901544 8.51034 1.03487 8.48859 1.16487C8.46684 1.29487 8.39464 1.41102 8.2877 1.48806C8.18075 1.5651 8.04771 1.5968 7.91752 1.57626C7.12885 1.44359 6.32074 1.48437 5.54944 1.69576C4.77814 1.90716 4.06216 2.28409 3.45134 2.80032C2.84052 3.31655 2.34953 3.95969 2.01254 4.68497C1.67555 5.41025 1.50065 6.20026 1.50002 7.00001C1.49883 8.34638 1.99367 9.646 2.89002 10.6506C3.25353 10.1234 3.71529 9.67118 4.25002 9.31876C4.29567 9.28849 4.34999 9.27406 4.40464 9.27767C4.4593 9.28129 4.51125 9.30275 4.55252 9.33876C5.23174 9.9265 6.09992 10.25 6.99814 10.25C7.89636 10.25 8.76454 9.9265 9.44377 9.33876C9.48504 9.30275 9.53699 9.28129 9.59164 9.27767C9.64629 9.27406 9.70062 9.28849 9.74627 9.31876C10.2815 9.67117 10.7439 10.1234 11.1081 10.6506C12.0052 9.64628 12.5007 8.34662 12.5 7.00001C12.5 6.69259 12.4745 6.3857 12.4238 6.08251C12.4123 6.01747 12.4138 5.95079 12.4282 5.88633C12.4426 5.82187 12.4696 5.76091 12.5077 5.70696C12.5458 5.65301 12.5943 5.60714 12.6502 5.57202C12.7061 5.53689 12.7685 5.51319 12.8336 5.50229C12.8988 5.49139 12.9654 5.49351 13.0298 5.50852C13.0941 5.52353 13.1548 5.55113 13.2084 5.58974C13.262 5.62835 13.3074 5.67719 13.342 5.73345C13.3766 5.78971 13.3997 5.85226 13.41 5.91751ZM4.25002 6.50001C4.25002 7.04391 4.4113 7.57559 4.71348 8.02782C5.01565 8.48006 5.44514 8.83253 5.94764 9.04068C6.45013 9.24882 7.00307 9.30328 7.53651 9.19717C8.06996 9.09106 8.55997 8.82915 8.94456 8.44455C9.32915 8.05996 9.59107 7.56995 9.69718 7.03651C9.80329 6.50306 9.74883 5.95012 9.54068 5.44763C9.33254 4.94513 8.98007 4.51564 8.52783 4.21347C8.0756 3.91129 7.54392 3.75001 7.00002 3.75001C6.27067 3.75001 5.5712 4.03974 5.05547 4.55546C4.53975 5.07119 4.25002 5.77066 4.25002 6.50001ZM13.8538 1.14626C13.8073 1.09977 13.7522 1.06289 13.6915 1.03773C13.6308 1.01257 13.5657 0.999614 13.5 0.999614C13.4343 0.999614 13.3692 1.01257 13.3085 1.03773C13.2478 1.06289 13.1927 1.09977 13.1463 1.14626L11.5 2.79313L10.8538 2.14626C10.8073 2.0998 10.7522 2.06295 10.6915 2.03781C10.6308 2.01267 10.5657 1.99973 10.5 1.99973C10.4343 1.99973 10.3693 2.01267 10.3086 2.03781C10.2479 2.06295 10.1927 2.0998 10.1463 2.14626C10.0998 2.19271 10.063 2.24786 10.0378 2.30856C10.0127 2.36926 9.99974 2.43431 9.99974 2.50001C9.99974 2.5657 10.0127 2.63076 10.0378 2.69146C10.063 2.75215 10.0998 2.8073 10.1463 2.85376L11.1463 3.85376C11.1927 3.90025 11.2478 3.93712 11.3085 3.96229C11.3692 3.98745 11.4343 4.0004 11.5 4.0004C11.5657 4.0004 11.6308 3.98745 11.6915 3.96229C11.7522 3.93712 11.8073 3.90025 11.8538 3.85376L13.8538 1.85376C13.9003 1.80732 13.9371 1.75218 13.9623 1.69148C13.9875 1.63078 14.0004 1.56571 14.0004 1.50001C14.0004 1.4343 13.9875 1.36924 13.9623 1.30854C13.9371 1.24784 13.9003 1.19269 13.8538 1.14626Z" fill="white"/>
</svg>
