<svg width="13" height="13" viewBox="0 0 13 13" fill="none" xmlns="http://www.w3.org/2000/svg">
<path d="M12.5 5.49999H5.38059L12.125 3.71936C12.1888 3.70254 12.2487 3.67324 12.3011 3.63316C12.3536 3.59308 12.3976 3.543 12.4306 3.48583C12.4636 3.42865 12.485 3.36551 12.4934 3.30003C12.5019 3.23456 12.4973 3.16806 12.48 3.10436L11.97 1.22936C11.8998 0.977105 11.733 0.762654 11.5059 0.632454C11.2787 0.502254 11.0094 0.466789 10.7562 0.533738L1.23809 3.04624C1.11136 3.07914 0.992466 3.13699 0.888367 3.2164C0.784269 3.29582 0.697059 3.3952 0.631844 3.50874C0.566265 3.62088 0.523896 3.74506 0.507254 3.8739C0.490613 4.00274 0.500038 4.13361 0.534969 4.25874L0.999969 5.97249C0.999969 5.98124 0.999969 5.99061 0.999969 5.99999V11.5C0.999969 11.7652 1.10533 12.0196 1.29286 12.2071C1.4804 12.3946 1.73475 12.5 1.99997 12.5H12C12.2652 12.5 12.5195 12.3946 12.7071 12.2071C12.8946 12.0196 13 11.7652 13 11.5V5.99999C13 5.86738 12.9473 5.7402 12.8535 5.64643C12.7598 5.55267 12.6326 5.49999 12.5 5.49999ZM11.01 1.49999L11.385 2.87936L9.28559 3.43749L7.52747 2.41999L11.01 1.49999ZM3.84684 3.39186L5.60434 4.40686L1.87934 5.38999L1.50434 4.00999L3.84684 3.39186Z" fill="white"/>
</svg>
