<svg width="14" height="13" viewBox="0 0 14 13" fill="none" xmlns="http://www.w3.org/2000/svg">
<path d="M14 4.375C14 8.75 7.51312 12.2913 7.23687 12.4375C7.16406 12.4767 7.08268 12.4972 7 12.4972C6.91732 12.4972 6.83594 12.4767 6.76312 12.4375C6.55375 12.325 2.79125 10.2694 0.970625 7.38188C0.947141 7.34405 0.934182 7.30064 0.933089 7.25614C0.931996 7.21163 0.942807 7.16764 0.964407 7.12871C0.986006 7.08978 1.01761 7.05732 1.05595 7.0347C1.09429 7.01207 1.13798 7.00009 1.1825 7H3.5C3.58234 7.00005 3.66342 6.97977 3.73603 6.94096C3.80865 6.90214 3.87055 6.84599 3.91625 6.7775L4.5 5.9025L6.08375 8.2775C6.14443 8.36851 6.23329 8.43711 6.3367 8.47279C6.4401 8.50846 6.55236 8.50924 6.65625 8.475C6.76646 8.43768 6.86076 8.36409 6.92375 8.26625L7.7675 7H9C9.06854 7.00015 9.13639 6.98621 9.19931 6.95903C9.26224 6.93186 9.31891 6.89204 9.3658 6.84204C9.41269 6.79205 9.4488 6.73294 9.47189 6.6684C9.49497 6.60387 9.50454 6.53527 9.5 6.46688C9.48881 6.33836 9.42945 6.21882 9.33383 6.13223C9.2382 6.04564 9.11337 5.99841 8.98438 6H7.5C7.41766 5.99995 7.33658 6.02023 7.26397 6.05904C7.19135 6.09786 7.12945 6.15401 7.08375 6.2225L6.5 7.0975L4.91625 4.7225C4.85553 4.63136 4.76657 4.56267 4.66303 4.52699C4.55949 4.49131 4.4471 4.49061 4.34312 4.525C4.23319 4.56253 4.13915 4.63609 4.07625 4.73375L3.2325 6H0.470625C0.417195 6.00015 0.365123 5.98317 0.322044 5.95157C0.278965 5.91996 0.247145 5.87539 0.23125 5.82438C0.0804481 5.35593 0.00245628 4.86711 0 4.375C0.00115796 3.34764 0.409788 2.36269 1.13624 1.63624C1.86269 0.909788 2.84764 0.501158 3.875 0.5C5.16563 0.5 6.29562 1.055 7 1.99312C7.70438 1.055 8.83438 0.5 10.125 0.5C11.1524 0.501158 12.1373 0.909788 12.8638 1.63624C13.5902 2.36269 13.9988 3.34764 14 4.375Z" fill="white"/>
</svg>
