<svg width="20" height="20" viewBox="0 0 20 20" fill="none" xmlns="http://www.w3.org/2000/svg">
<path d="M18.25 5.75H14.9613C14.9978 5.71906 15.0353 5.68906 15.0709 5.65625C15.3557 5.40329 15.5851 5.0943 15.745 4.74861C15.9049 4.40292 15.9917 4.02796 16 3.64719C16.0123 3.23063 15.9394 2.81595 15.7856 2.42861C15.6319 2.04127 15.4006 1.68944 15.106 1.39472C14.8113 1.1 14.4596 0.868603 14.0723 0.714745C13.685 0.560886 13.2703 0.487809 12.8538 0.5C12.4728 0.508205 12.0977 0.594955 11.7518 0.754819C11.406 0.914684 11.0968 1.14422 10.8438 1.42906C10.4936 1.8349 10.2089 2.29291 10 2.78656C9.7911 2.29291 9.50642 1.8349 9.15625 1.42906C8.90318 1.14422 8.59405 0.914684 8.24818 0.754819C7.90232 0.594955 7.52718 0.508205 7.14625 0.5C6.72969 0.487809 6.31503 0.560886 5.92774 0.714745C5.54044 0.868603 5.18868 1.1 4.89405 1.39472C4.59941 1.68944 4.36812 2.04127 4.21438 2.42861C4.06064 2.81595 3.98768 3.23063 4 3.64719C4.00833 4.02796 4.09514 4.40292 4.255 4.74861C4.41486 5.0943 4.64434 5.40329 4.92906 5.65625C4.96469 5.68719 5.00219 5.71719 5.03875 5.75H1.75C1.35218 5.75 0.970644 5.90804 0.68934 6.18934C0.408035 6.47064 0.25 6.85218 0.25 7.25V10.25C0.25 10.6478 0.408035 11.0294 0.68934 11.3107C0.970644 11.592 1.35218 11.75 1.75 11.75V17.75C1.75 18.1478 1.90804 18.5294 2.18934 18.8107C2.47064 19.092 2.85218 19.25 3.25 19.25H8.875C8.97446 19.25 9.06984 19.2105 9.14017 19.1402C9.21049 19.0698 9.25 18.9745 9.25 18.875V10.25H1.75V7.25H9.25V10.25H10.75V7.25H18.25V10.25H10.75V18.875C10.75 18.9745 10.7895 19.0698 10.8598 19.1402C10.9302 19.2105 11.0255 19.25 11.125 19.25H16.75C17.1478 19.25 17.5294 19.092 17.8107 18.8107C18.092 18.5294 18.25 18.1478 18.25 17.75V11.75C18.6478 11.75 19.0294 11.592 19.3107 11.3107C19.592 11.0294 19.75 10.6478 19.75 10.25V7.25C19.75 6.85218 19.592 6.47064 19.3107 6.18934C19.0294 5.90804 18.6478 5.75 18.25 5.75ZM5.92281 4.53125C5.79168 4.4125 5.68651 4.26792 5.61391 4.10659C5.54131 3.94525 5.50285 3.77065 5.50094 3.59375C5.4962 3.38647 5.53287 3.18033 5.60881 2.98741C5.68476 2.79448 5.79844 2.61866 5.9432 2.47023C6.08796 2.3218 6.26089 2.20375 6.45186 2.12301C6.64282 2.04226 6.84798 2.00045 7.05531 2H7.10125C7.27815 2.00191 7.45275 2.04037 7.61409 2.11297C7.77542 2.18557 7.92 2.29074 8.03875 2.42188C8.82531 3.31063 9.10281 4.78438 9.20031 5.69563C8.28531 5.59906 6.8125 5.32156 5.92281 4.53125ZM14.0791 4.53125C13.1894 5.31875 11.7128 5.59625 10.7978 5.69375C10.9094 4.70844 11.2188 3.26563 11.9688 2.42281C12.0875 2.29168 12.2321 2.18651 12.3934 2.11391C12.5547 2.04131 12.7293 2.00285 12.9062 2.00094H12.9522C13.1595 2.00223 13.3645 2.0449 13.5552 2.12644C13.7458 2.20798 13.9183 2.32675 14.0624 2.4758C14.2066 2.62484 14.3195 2.80115 14.3947 2.99441C14.4698 3.18767 14.5056 3.39398 14.5 3.60125C14.4969 3.77695 14.4578 3.95016 14.3851 4.11013C14.3124 4.27011 14.2076 4.41344 14.0772 4.53125H14.0791Z" fill="#E0FE10"/>
</svg>
