<svg width="47" height="46" viewBox="0 0 47 46" fill="none" xmlns="http://www.w3.org/2000/svg">
<rect x="0.5" width="46" height="46" rx="23" fill="#3D3D3D" fill-opacity="0.36"/>
<rect x="1" y="0.5" width="45" height="45" rx="22.5" stroke="#4D4D4D" stroke-opacity="0.08"/>
<path d="M40.22 23.3958C40.22 22.1608 40.1092 20.9733 39.9033 19.8333H23.5V26.5704H32.8733C32.4696 28.7475 31.2425 30.5921 29.3979 31.8271V36.1971H35.0267C38.32 33.165 40.22 28.7 40.22 23.3958Z" fill="#4285F4"/>
<path d="M23.5 40.4166C28.2025 40.4166 32.145 38.8571 35.0267 36.1971L29.3979 31.8271C27.8383 32.8721 25.8433 33.4896 23.5 33.4896C18.9638 33.4896 15.1242 30.4258 13.7546 26.3091H7.93584V30.8216C10.8017 36.5137 16.6917 40.4166 23.5 40.4166Z" fill="#34A853"/>
<path d="M13.7546 26.3092C13.4062 25.2642 13.2083 24.1479 13.2083 23C13.2083 21.8521 13.4062 20.7358 13.7546 19.6908V15.1783H7.93583C6.71666 17.6054 6.08225 20.284 6.08333 23C6.08333 25.8104 6.75625 28.4704 7.93583 30.8217L13.7546 26.3092Z" fill="#FBBC05"/>
<path d="M23.5 12.5104C26.0571 12.5104 28.3529 13.3891 30.1579 15.115L35.1533 10.1196C32.1371 7.30915 28.1946 5.58331 23.5 5.58331C16.6917 5.58331 10.8017 9.48623 7.93584 15.1783L13.7546 19.6908C15.1242 15.5741 18.9638 12.5104 23.5 12.5104Z" fill="#EA4335"/>
</svg>
