
<svg width="9" height="10" viewBox="0 0 9 10" fill="none" xmlns="http://www.w3.org/2000/svg">
<path d="M8.79996 5.0059C8.79996 5.30919 8.70451 5.61363 8.5136 5.85742C8.4778 5.90525 8.31076 6.10238 8.17951 6.23069L8.10792 6.30068C7.10565 7.36333 4.6119 8.96138 3.34712 9.47346C3.34712 9.48513 2.59542 9.78957 2.23746 9.80007H2.18974C1.64087 9.80007 1.1278 9.49796 0.865304 9.00804C0.722122 8.73859 0.590872 7.95706 0.57894 7.94656C0.471554 7.24552 0.399963 6.17237 0.399963 4.99424C0.399963 3.75896 0.471554 2.63798 0.602804 1.94977C0.602804 1.9381 0.734054 1.30821 0.817577 1.09825C0.948827 0.796136 1.18746 0.538348 1.48576 0.375043C1.7244 0.259563 1.97496 0.200073 2.23746 0.200073C2.5119 0.212904 3.02496 0.386707 3.2278 0.46836C4.56417 0.981604 7.11758 2.66131 8.09599 3.6878C8.26303 3.85111 8.44201 4.05057 8.48974 4.09606C8.69258 4.35268 8.79996 4.66763 8.79996 5.0059Z" fill="#5B5B5B"/>


</svg>
