<svg width="51" height="50" viewBox="0 0 51 50" fill="none" xmlns="http://www.w3.org/2000/svg">
<rect width="51" height="50" rx="25" fill="white" fill-opacity="0.43"/>
<path opacity="0.4" d="M44 25.0087C44 34.9247 35.9208 43 26 43C16.0792 43 8 34.9247 8 25.0087C8 15.0753 16.0792 7 26 7C35.9208 7 44 15.0753 44 25.0087Z" fill="white"/>
<path d="M33.2 25.0087C33.2 25.4637 33.0568 25.9203 32.7704 26.286C32.7167 26.3578 32.4662 26.6535 32.2693 26.8459L32.1619 26.9509C30.6585 28.5449 26.9179 30.942 25.0207 31.7101C25.0207 31.7276 23.8932 32.1842 23.3562 32.2H23.2846C22.4613 32.2 21.6917 31.7468 21.298 31.0119C21.0832 30.6078 20.8863 29.4355 20.8684 29.4197C20.7074 28.3682 20.6 26.7584 20.6 24.9912C20.6 23.1383 20.7074 21.4569 20.9042 20.4245C20.9042 20.407 21.1011 19.4622 21.2264 19.1473C21.4233 18.6941 21.7812 18.3074 22.2287 18.0624C22.5866 17.8892 22.9625 17.8 23.3562 17.8C23.7679 17.8192 24.5375 18.0799 24.8417 18.2024C26.8463 18.9723 30.6764 21.4918 32.144 23.0316C32.3946 23.2765 32.663 23.5757 32.7346 23.644C33.0389 24.0289 33.2 24.5013 33.2 25.0087Z" fill="white"/>
</svg>
